<svg width="32" height="32" viewBox="0 0 32 32" fill="none" xmlns="http://www.w3.org/2000/svg">
<g id="ChartDonut">
<path id="Vector" d="M16 3.5C15.8674 3.5 15.7402 3.55268 15.6464 3.64645C15.5527 3.74021 15.5 3.86739 15.5 4V11C15.5 11.1326 15.5527 11.2598 15.6464 11.3536C15.7402 11.4473 15.8674 11.5 16 11.5C16.9906 11.5001 17.9534 11.827 18.7393 12.4301C19.5251 13.0332 20.09 13.8787 20.3463 14.8356C20.6026 15.7924 20.5361 16.8071 20.157 17.7223C19.7778 18.6375 19.1073 19.402 18.2494 19.8972C17.3915 20.3925 16.3942 20.5908 15.4121 20.4615C14.43 20.3322 13.518 19.8824 12.8175 19.1819C12.1171 18.4814 11.6674 17.5694 11.5381 16.5873C11.4088 15.6052 11.6072 14.6079 12.1025 13.75C12.1354 13.6931 12.1567 13.6302 12.1653 13.565C12.1739 13.4998 12.1695 13.4335 12.1525 13.37C12.1354 13.3065 12.106 13.247 12.0659 13.1948C12.0257 13.1427 11.9757 13.099 11.9187 13.0662L5.85622 9.56625C5.74134 9.50017 5.60492 9.48241 5.47694 9.51686C5.34896 9.55132 5.2399 9.63517 5.17372 9.75C3.7979 12.133 3.24683 14.9034 3.60597 17.6315C3.9651 20.3596 5.21438 22.8929 7.16004 24.8387C9.10571 26.7844 11.639 28.0338 14.3671 28.393C17.0952 28.7523 19.8656 28.2013 22.2486 26.8256C24.6317 25.4498 26.4942 23.3262 27.5473 20.7841C28.6004 18.2419 28.7853 15.4234 28.0733 12.7654C27.3613 10.1075 25.7921 7.75881 23.6092 6.08358C21.4263 4.40835 18.7516 3.50021 16 3.5ZM5.79747 10.6875L11.0062 13.6875C10.5383 14.6996 10.39 15.8303 10.5812 16.9287L4.77247 18.4912C4.18769 15.8503 4.55053 13.0878 5.79747 10.6875ZM5.03122 19.4562L10.8387 17.9C11.1996 18.8749 11.8286 19.7279 12.6534 20.3607C13.4781 20.9934 14.4649 21.3802 15.5 21.4762V27.4888C13.1424 27.3832 10.8741 26.5562 9.00177 25.1196C7.12947 23.683 5.74348 21.7061 5.03122 19.4562ZM16.5 27.4888V21.4762C17.8657 21.3506 19.1352 20.7193 20.0595 19.7061C20.9838 18.6928 21.4961 17.3708 21.4961 15.9994C21.4961 14.6279 20.9838 13.3059 20.0595 12.2927C19.1352 11.2795 17.8657 10.6481 16.5 10.5225V4.51125C19.459 4.64223 22.2534 5.90989 24.301 8.05011C26.3486 10.1903 27.4914 13.0381 27.4914 16C27.4914 18.9619 26.3486 21.8097 24.301 23.9499C22.2534 26.0901 19.459 27.3578 16.5 27.4888Z" fill="#8B71F6"/>
</g>
</svg>
