<svg width="62" height="61" viewBox="0 0 62 61" fill="none" xmlns="http://www.w3.org/2000/svg">
<path d="M41.1186 24.1614C41.2065 24.2492 41.2762 24.3534 41.3237 24.4681C41.3713 24.5828 41.3958 24.7058 41.3958 24.83C41.3958 24.9542 41.3713 25.0772 41.3237 25.1919C41.2762 25.3066 41.2065 25.4108 41.1186 25.4986L27.8886 38.7286C27.8008 38.8164 27.6966 38.8862 27.5819 38.9337C27.4672 38.9813 27.3442 39.0057 27.22 39.0057C27.0958 39.0057 26.9729 38.9813 26.8581 38.9337C26.7434 38.8862 26.6392 38.8164 26.5514 38.7286L20.8814 33.0586C20.7041 32.8813 20.6045 32.6408 20.6045 32.39C20.6045 32.1392 20.7041 31.8987 20.8814 31.7214C21.0587 31.5441 21.2992 31.4445 21.55 31.4445C21.8008 31.4445 22.0413 31.5441 22.2186 31.7214L27.22 36.7228L39.7814 24.1614C39.8692 24.0735 39.9734 24.0038 40.0881 23.9563C40.2029 23.9087 40.3258 23.8843 40.45 23.8843C40.5742 23.8843 40.6972 23.9087 40.8119 23.9563C40.9266 24.0038 41.0308 24.0735 41.1186 24.1614ZM54.625 30.5C54.625 35.1726 53.2394 39.7402 50.6435 43.6253C48.0475 47.5105 44.3578 50.5385 40.0409 52.3267C35.724 54.1148 30.9738 54.5826 26.391 53.671C21.8082 52.7595 17.5986 50.5094 14.2946 47.2054C10.9906 43.9014 8.74053 39.6918 7.82896 35.109C6.91738 30.5262 7.38524 25.776 9.17336 21.4591C10.9615 17.1422 13.9896 13.4525 17.8747 10.8565C21.7598 8.26058 26.3274 6.875 31 6.875C37.2636 6.88188 43.2688 9.37314 47.6978 13.8022C52.1269 18.2313 54.6181 24.2364 54.625 30.5ZM52.735 30.5C52.735 26.2012 51.4603 21.999 49.072 18.4247C46.6837 14.8504 43.2892 12.0645 39.3176 10.4195C35.3461 8.77441 30.9759 8.34398 26.7597 9.18263C22.5435 10.0213 18.6707 12.0913 15.631 15.131C12.5913 18.1707 10.5213 22.0435 9.68264 26.2597C8.84399 30.4759 9.27442 34.8461 10.9195 38.8176C12.5646 42.7892 15.3504 46.1837 18.9247 48.572C22.499 50.9603 26.7012 52.235 31 52.235C36.7626 52.2287 42.2873 49.9368 46.3621 45.8621C50.4368 41.7873 52.7288 36.2626 52.735 30.5Z" fill="#8B71F6"/>
</svg>
