<svg width="33" height="32" viewBox="0 0 33 32" fill="none" xmlns="http://www.w3.org/2000/svg">
<path d="M21.8071 10.6064C21.5486 8.86569 20.8116 7.231 19.6785 5.88461C18.5453 4.53822 17.0604 3.53305 15.3894 2.98118C13.7183 2.42931 11.9269 2.35243 10.2147 2.75912C8.50255 3.16581 6.93701 4.04008 5.69264 5.28444C4.44828 6.5288 3.57401 8.09435 3.16732 9.8065C2.76063 11.5187 2.83751 13.3101 3.38938 14.9812C3.94125 16.6522 4.94642 18.1371 6.29281 19.2703C7.6392 20.4034 9.27389 21.1404 11.0146 21.3989C11.2731 23.1396 12.01 24.7743 13.1432 26.1207C14.2764 27.4671 15.7613 28.4722 17.4323 29.0241C19.1034 29.576 20.8948 29.6528 22.607 29.2462C24.3191 28.8395 25.8847 27.9652 27.129 26.7208C28.3734 25.4765 29.2477 23.9109 29.6544 22.1988C30.0611 20.4866 29.9842 18.6952 29.4323 17.0241C28.8804 15.3531 27.8753 13.8682 26.5289 12.735C25.1825 11.6018 23.5478 10.8649 21.8071 10.6064ZM28.9108 20.0026C28.9103 20.551 28.8571 21.0981 28.7521 21.6364L21.5846 14.4689C21.801 13.6647 21.9107 12.8355 21.9108 12.0026C21.9108 11.8776 21.9108 11.7526 21.9021 11.6364C23.8654 11.9888 25.6427 13.0194 26.9237 14.5485C28.2046 16.0776 28.9079 18.0079 28.9108 20.0026ZM26.7608 25.6451L19.4683 18.3539C20.2164 17.5227 20.8125 16.5665 21.2296 15.5289L28.4521 22.7526C28.0854 23.8193 27.5105 24.8025 26.7608 25.6451ZM23.1608 28.0439L15.9383 20.8214C16.9759 20.4043 17.9321 19.8082 18.7633 19.0601L26.0546 26.3526C25.2115 27.1025 24.2279 27.6774 23.1608 28.0439ZM6.06084 6.36014L13.3533 13.6514C12.6053 14.4826 12.0091 15.4388 11.5921 16.4764L4.36959 9.25264C4.73627 8.186 5.31114 7.20282 6.06084 6.36014ZM9.66084 3.96139L16.8833 11.1839C15.8458 11.6009 14.8896 12.1971 14.0583 12.9451L6.76834 5.65264C7.61102 4.90294 8.59421 4.32806 9.66084 3.96139ZM11.9108 20.0026C11.9132 17.749 12.8094 15.5883 14.403 13.9948C15.9966 12.4012 18.1572 11.505 20.4108 11.5026C20.5733 11.5026 20.7358 11.5026 20.8958 11.5176C20.9108 11.6776 20.9108 11.8401 20.9108 12.0026C20.9085 14.2563 20.0122 16.4169 18.4187 18.0105C16.8251 19.604 14.6645 20.5003 12.4108 20.5026C12.2483 20.5026 12.0858 20.4964 11.9258 20.4876C11.9171 20.3276 11.9108 20.1651 11.9108 20.0026ZM20.7771 10.5114C20.6521 10.5114 20.5271 10.5026 20.4108 10.5026C19.578 10.5028 18.7488 10.6125 17.9446 10.8289L10.7771 3.66139C11.8843 3.44478 13.0236 3.45076 14.1285 3.67899C15.2334 3.90722 16.2818 4.35313 17.2126 4.99073C18.1434 5.62832 18.938 6.44483 19.5499 7.39266C20.1619 8.3405 20.5791 9.40068 20.7771 10.5114ZM3.91084 12.0026C3.91142 11.4542 3.96458 10.9071 4.06959 10.3689L11.2371 17.5364C11.0207 18.3406 10.911 19.1698 10.9108 20.0026C10.9108 20.1276 10.9108 20.2526 10.9196 20.3689C8.95624 20.0165 7.17898 18.9859 5.89802 17.4568C4.61705 15.9277 3.91374 13.9974 3.91084 12.0026ZM12.0446 21.4939C12.1696 21.4939 12.2946 21.5026 12.4108 21.5026C13.2437 21.5025 14.0729 21.3928 14.8771 21.1764L22.0446 28.3439C20.9374 28.5605 19.7981 28.5545 18.6932 28.3263C17.5883 28.0981 16.5399 27.6521 15.6091 27.0146C14.6783 26.377 13.8837 25.5604 13.2717 24.6126C12.6598 23.6648 12.2426 22.6046 12.0446 21.4939Z" fill="#8B71F6"/>
</svg>
