<svg width="33" height="32" viewBox="0 0 33 32" fill="none" xmlns="http://www.w3.org/2000/svg">
<path d="M30.8683 15.7995C30.8258 15.7045 29.8033 13.4382 27.5146 11.1495C25.3946 9.02945 21.7483 6.50195 16.4108 6.50195C11.0733 6.50195 7.42708 9.02945 5.30708 11.1495C3.01833 13.4382 1.99583 15.7045 1.95333 15.7995C1.9255 15.8636 1.91113 15.9327 1.91113 16.0026C1.91113 16.0725 1.9255 16.1416 1.95333 16.2057C1.99583 16.302 3.01833 18.567 5.30708 20.8557C7.43208 22.9807 11.0746 25.502 16.4108 25.502C21.7471 25.502 25.3946 22.9757 27.5146 20.8557C29.8033 18.567 30.8258 16.302 30.8683 16.2057C30.8962 16.1416 30.9105 16.0725 30.9105 16.0026C30.9105 15.9327 30.8962 15.8636 30.8683 15.7995ZM26.7808 20.1745C23.8971 23.0495 20.4058 24.502 16.4058 24.502C12.4058 24.502 8.91958 23.0457 6.03083 20.1745C4.80169 18.9486 3.76799 17.5414 2.96583 16.002C3.76948 14.4621 4.80489 13.0549 6.03583 11.8295C8.92458 8.9582 12.4108 7.50195 16.4108 7.50195C20.4108 7.50195 23.8971 8.9582 26.7858 11.8295C28.0166 13.055 29.052 14.4622 29.8558 16.002C29.0521 17.5418 28.0167 18.949 26.7858 20.1745H26.7808ZM16.4108 10.502C15.323 10.502 14.2597 10.8245 13.3552 11.4289C12.4507 12.0332 11.7458 12.8922 11.3295 13.8972C10.9132 14.9022 10.8043 16.0081 11.0165 17.0749C11.2287 18.1418 11.7526 19.1219 12.5217 19.891C13.2909 20.6602 14.2709 21.1841 15.3378 21.3963C16.4047 21.6085 17.5106 21.4996 18.5156 21.0833C19.5206 20.667 20.3796 19.9621 20.9839 19.0576C21.5883 18.1531 21.9108 17.0898 21.9108 16.002C21.9092 14.5438 21.3292 13.1458 20.2981 12.1147C19.267 11.0836 17.869 10.5036 16.4108 10.502ZM16.4108 20.502C15.5208 20.502 14.6508 20.238 13.9108 19.7436C13.1707 19.2491 12.594 18.5463 12.2534 17.724C11.9128 16.9018 11.8237 15.997 11.9973 15.124C12.1709 14.2511 12.5995 13.4493 13.2288 12.82C13.8582 12.1906 14.66 11.7621 15.5329 11.5884C16.4058 11.4148 17.3106 11.5039 18.1329 11.8445C18.9552 12.1851 19.658 12.7619 20.1524 13.5019C20.6469 14.2419 20.9108 15.1119 20.9108 16.002C20.9108 17.1954 20.4367 18.34 19.5928 19.1839C18.7489 20.0278 17.6043 20.502 16.4108 20.502Z" fill="#8B71F6"/>
</svg>
