<svg width="32" height="33" viewBox="0 0 32 33" fill="none" xmlns="http://www.w3.org/2000/svg">
<g id="Globe">
<path id="Vector" d="M16 3.78906C13.5277 3.78906 11.111 4.52217 9.05538 5.89569C6.99976 7.26921 5.39761 9.22144 4.45151 11.5055C3.50542 13.7896 3.25787 16.3029 3.74019 18.7277C4.2225 21.1525 5.41301 23.3797 7.16117 25.1279C8.90933 26.8761 11.1366 28.0666 13.5614 28.5489C15.9861 29.0312 18.4995 28.7837 20.7835 27.8376C23.0676 26.8915 25.0199 25.2893 26.3934 23.2337C27.7669 21.1781 28.5 18.7613 28.5 16.2891C28.4964 12.975 27.1782 9.79766 24.8348 7.45425C22.4914 5.11083 19.3141 3.7927 16 3.78906ZM16 27.6153C15.2088 26.8541 13.125 24.5641 12.0913 20.7891H19.9088C18.875 24.5641 16.7913 26.8541 16 27.6153ZM11.8525 19.7891C11.3825 17.4794 11.3825 15.0987 11.8525 12.7891H20.1475C20.6175 15.0987 20.6175 17.4794 20.1475 19.7891H11.8525ZM16 4.96281C16.7913 5.72406 18.875 8.01406 19.9088 11.7891H12.0913C13.125 8.01406 15.2088 5.72406 16 4.96281ZM21.1763 12.7891H26.955C27.6817 15.0658 27.6817 17.5123 26.955 19.7891H21.1763C21.6079 17.4757 21.6079 15.1024 21.1763 12.7891ZM26.5825 11.7891H20.9575C20.3266 9.2168 19.0737 6.83883 17.3088 4.86406C19.3277 5.09863 21.2488 5.86268 22.8774 7.07879C24.506 8.2949 25.7842 9.91987 26.5825 11.7891ZM14.6925 4.86406C12.9276 6.83883 11.6747 9.2168 11.0438 11.7891H5.41876C6.21709 9.91987 7.4953 8.2949 9.12388 7.07879C10.7525 5.86268 12.6735 5.09863 14.6925 4.86406ZM5.04501 12.7891H10.8238C10.3921 15.1024 10.3921 17.4757 10.8238 19.7891H5.04501C4.31835 17.5123 4.31835 15.0658 5.04501 12.7891ZM5.42001 20.7891H11.045C11.6759 23.3613 12.9289 25.7393 14.6938 27.7141C12.6744 27.4799 10.7527 26.7161 9.12369 25.4999C7.49464 24.2838 6.21605 22.6586 5.41751 20.7891H5.42001ZM17.31 27.7141C19.074 25.739 20.3261 23.3611 20.9563 20.7891H26.5813C25.7829 22.6583 24.5047 24.2832 22.8761 25.4993C21.2476 26.7155 19.3265 27.4795 17.3075 27.7141H17.31Z" fill="#8B71F6"/>
</g>
</svg>
