<svg width="33" height="32" viewBox="0 0 33 32" fill="none" xmlns="http://www.w3.org/2000/svg">
<path d="M25.4107 19.502C24.5058 19.5013 23.6361 19.8527 22.9857 20.482L19.4507 17.732C19.7526 17.2054 19.9112 16.6089 19.9107 16.002C19.9106 15.7924 19.8918 15.5832 19.8545 15.377L22.2857 14.5707C22.6835 15.3637 23.367 15.9766 24.1986 16.286C25.0302 16.5953 25.9481 16.5781 26.7675 16.2379C27.5869 15.8977 28.247 15.2596 28.6149 14.4522C28.9827 13.6449 29.0311 12.7281 28.7502 11.8865C28.4693 11.0449 27.88 10.341 27.1009 9.91642C26.3218 9.49186 25.4109 9.37821 24.5514 9.59835C23.6919 9.81849 22.9477 10.3561 22.4686 11.1029C21.9896 11.8496 21.8112 12.7502 21.9694 13.6232L19.5357 14.4332C19.2449 13.8533 18.7988 13.3657 18.2469 13.0246C17.6951 12.6836 17.0594 12.5026 16.4107 12.502C16.0894 12.5018 15.7697 12.5464 15.4607 12.6345L14.2732 9.9632C14.9868 9.51359 15.5141 8.82139 15.758 8.01397C16.0018 7.20655 15.9459 6.33821 15.6005 5.56872C15.2552 4.79923 14.6435 4.18035 13.8781 3.82594C13.1128 3.47152 12.2451 3.40542 11.4349 3.63979C10.6247 3.87416 9.92633 4.39324 9.46835 5.10152C9.01037 5.8098 8.82357 6.65964 8.94231 7.49469C9.06106 8.32974 9.47736 9.09383 10.1146 9.64637C10.7519 10.1989 11.5673 10.5027 12.4107 10.502C12.732 10.5021 13.0517 10.4575 13.3607 10.3695L14.5482 13.0407C14.1535 13.2883 13.8122 13.6123 13.5446 13.9937C13.2769 14.3751 13.0883 14.8062 12.9898 15.2617C12.8912 15.7171 12.8848 16.1876 12.9708 16.6455C13.0568 17.1035 13.2336 17.5396 13.4907 17.9282L9.6607 21.3282C8.98497 20.7571 8.118 20.463 7.23425 20.5053C6.35049 20.5475 5.51552 20.9229 4.89735 21.5559C4.27918 22.1889 3.92368 23.0325 3.90238 23.917C3.88108 24.8015 4.19556 25.6613 4.78255 26.3233C5.36953 26.9853 6.18546 27.4005 7.06616 27.4852C7.94686 27.5699 8.82697 27.318 9.52941 26.78C10.2319 26.2421 10.7045 25.4581 10.8522 24.5857C11 23.7134 10.8118 22.8174 10.3257 22.0782L14.1507 18.6782C14.8111 19.2373 15.6555 19.5311 16.5203 19.5027C17.3851 19.4743 18.2085 19.1256 18.8307 18.5245L22.3657 21.2745C21.986 21.9435 21.8373 22.7191 21.9426 23.4811C22.048 24.2432 22.4014 24.9494 22.9484 25.4904C23.4954 26.0314 24.2053 26.3771 24.9685 26.474C25.7317 26.571 26.5056 26.4138 27.1704 26.0268C27.8353 25.6398 28.3541 25.0445 28.6467 24.333C28.9393 23.6214 28.9893 22.8334 28.7889 22.0906C28.5886 21.3478 28.1491 20.6917 27.5385 20.2238C26.9278 19.7559 26.18 19.5022 25.4107 19.502ZM25.4107 10.502C25.9052 10.502 26.3885 10.6486 26.7996 10.9233C27.2107 11.198 27.5312 11.5884 27.7204 12.0452C27.9096 12.5021 27.9591 13.0047 27.8627 13.4897C27.7662 13.9746 27.5281 14.4201 27.1785 14.7697C26.8288 15.1194 26.3834 15.3575 25.8984 15.4539C25.4135 15.5504 24.9108 15.5009 24.454 15.3117C23.9972 15.1224 23.6067 14.802 23.332 14.3909C23.0573 13.9798 22.9107 13.4964 22.9107 13.002C22.9107 12.3389 23.1741 11.703 23.6429 11.2342C24.1118 10.7653 24.7477 10.502 25.4107 10.502ZM9.9107 7.00195C9.9107 6.5075 10.0573 6.02415 10.332 5.61303C10.6067 5.20191 10.9972 4.88147 11.454 4.69226C11.9108 4.50304 12.4135 4.45353 12.8984 4.54999C13.3834 4.64645 13.8288 4.88456 14.1785 5.23419C14.5281 5.58382 14.7662 6.02928 14.8627 6.51423C14.9591 6.99918 14.9096 7.50185 14.7204 7.95866C14.5312 8.41548 14.2107 8.80592 13.7996 9.08063C13.3885 9.35533 12.9052 9.50195 12.4107 9.50195C11.7477 9.50195 11.1118 9.23856 10.6429 8.76972C10.1741 8.30088 9.9107 7.665 9.9107 7.00195ZM7.4107 26.502C6.91625 26.502 6.4329 26.3553 6.02178 26.0806C5.61065 25.8059 5.29022 25.4155 5.101 24.9587C4.91178 24.5018 4.86227 23.9992 4.95874 23.5142C5.0552 23.0293 5.2933 22.5838 5.64293 22.2342C5.99256 21.8846 6.43802 21.6465 6.92297 21.55C7.40793 21.4535 7.91059 21.503 8.36741 21.6923C8.82422 21.8815 9.21467 22.2019 9.48937 22.613C9.76408 23.0242 9.9107 23.5075 9.9107 24.002C9.9107 24.665 9.64731 25.3009 9.17847 25.7697C8.70963 26.2386 8.07374 26.502 7.4107 26.502ZM16.4107 18.502C15.9162 18.502 15.4329 18.3553 15.0218 18.0806C14.6107 17.8059 14.2902 17.4155 14.101 16.9587C13.9118 16.5018 13.8623 15.9992 13.9587 15.5142C14.0552 15.0293 14.2933 14.5838 14.6429 14.2342C14.9926 13.8846 15.438 13.6465 15.923 13.55C16.4079 13.4535 16.9106 13.503 17.3674 13.6923C17.8242 13.8815 18.2147 14.2019 18.4894 14.613C18.7641 15.0242 18.9107 15.5075 18.9107 16.002C18.9107 16.665 18.6473 17.3009 18.1785 17.7697C17.7096 18.2386 17.0737 18.502 16.4107 18.502ZM25.4107 25.502C24.9162 25.502 24.4329 25.3553 24.0218 25.0806C23.6107 24.8059 23.2902 24.4155 23.101 23.9587C22.9118 23.5018 22.8623 22.9992 22.9587 22.5142C23.0552 22.0293 23.2933 21.5838 23.6429 21.2342C23.9926 20.8846 24.438 20.6465 24.923 20.55C25.4079 20.4535 25.9106 20.503 26.3674 20.6923C26.8242 20.8815 27.2147 21.2019 27.4894 21.613C27.7641 22.0242 27.9107 22.5075 27.9107 23.002C27.9107 23.665 27.6473 24.3009 27.1785 24.7697C26.7096 25.2386 26.0737 25.502 25.4107 25.502Z" fill="#8B71F6"/>
</svg>
