<svg width="33" height="32" viewBox="0 0 33 32" fill="none" xmlns="http://www.w3.org/2000/svg">
<path d="M26.8876 5.52589C26.2623 4.89822 25.4222 4.53106 24.5368 4.49846C23.6514 4.46587 22.7866 4.77028 22.1168 5.35027C21.4471 5.93027 21.0222 6.74269 20.9279 7.62365C20.8336 8.50461 21.077 9.38855 21.6088 10.0971L10.5063 21.1996C9.83219 20.6956 8.99898 20.4514 8.15941 20.5118C7.31984 20.5721 6.53015 20.9331 5.93508 21.5284C5.46113 22.0032 5.13361 22.6041 4.99152 23.2598C4.84943 23.9154 4.89875 24.5981 5.13361 25.2264C5.36848 25.8548 5.77898 26.4025 6.31626 26.8042C6.85353 27.2059 7.49494 27.4448 8.1641 27.4923C8.83326 27.5398 9.50198 27.3941 10.0907 27.0723C10.6793 26.7506 11.1631 26.2665 11.4845 25.6776C11.8058 25.0887 11.9511 24.4199 11.9031 23.7508C11.8552 23.0816 11.6159 22.4404 11.2138 21.9034L22.3163 10.8009C23.0249 11.3328 23.9089 11.5761 24.7898 11.4818C25.6708 11.3875 26.4832 10.9626 27.0632 10.2929C27.6432 9.62312 27.9476 8.75832 27.915 7.87292C27.8824 6.98753 27.5152 6.14745 26.8876 5.52214V5.52589ZM10.1788 25.7759C9.82922 26.1256 9.38377 26.3638 8.8988 26.4603C8.41382 26.5568 7.91112 26.5074 7.45426 26.3182C6.9974 26.129 6.60691 25.8085 6.33217 25.3974C6.05743 24.9863 5.91079 24.5029 5.91079 24.0084C5.91079 23.5139 6.05743 23.0305 6.33217 22.6194C6.60691 22.2083 6.9974 21.8878 7.45426 21.6986C7.91112 21.5094 8.41382 21.46 8.8988 21.5565C9.38377 21.653 9.82922 21.8912 10.1788 22.2409C10.646 22.7095 10.9083 23.3442 10.9083 24.0059C10.9083 24.6676 10.646 25.3023 10.1788 25.7709V25.7759ZM26.1788 9.77589C25.71 10.2446 25.0742 10.5079 24.4113 10.5079C23.7484 10.5079 23.1126 10.2446 22.6438 9.77589C22.2941 9.42629 22.0559 8.98084 21.9594 8.49586C21.8629 8.01089 21.9124 7.50818 22.1016 7.05132C22.2908 6.59446 22.6112 6.20397 23.0223 5.92924C23.4335 5.6545 23.9168 5.50786 24.4113 5.50786C24.9058 5.50786 25.3892 5.6545 25.8003 5.92924C26.2115 6.20397 26.5319 6.59446 26.7211 7.05132C26.9103 7.50818 26.9598 8.01089 26.8632 8.49586C26.7667 8.98084 26.5285 9.42629 26.1788 9.77589Z" fill="#8B71F6"/>
</svg>
