<svg width="32" height="33" viewBox="0 0 32 33" fill="none" xmlns="http://www.w3.org/2000/svg">
<g id="LockLaminated">
<path id="Vector" d="M26 10.7891H21.5V7.28906C21.5 5.83037 20.9205 4.43143 19.8891 3.39998C18.8576 2.36853 17.4587 1.78906 16 1.78906C14.5413 1.78906 13.1424 2.36853 12.1109 3.39998C11.0795 4.43143 10.5 5.83037 10.5 7.28906V10.7891H6C5.60218 10.7891 5.22064 10.9471 4.93934 11.2284C4.65804 11.5097 4.5 11.8912 4.5 12.2891V26.2891C4.5 26.6869 4.65804 27.0684 4.93934 27.3497C5.22064 27.631 5.60218 27.7891 6 27.7891H26C26.3978 27.7891 26.7794 27.631 27.0607 27.3497C27.342 27.0684 27.5 26.6869 27.5 26.2891V12.2891C27.5 11.8912 27.342 11.5097 27.0607 11.2284C26.7794 10.9471 26.3978 10.7891 26 10.7891ZM5.5 15.7891H26.5V18.7891H5.5V15.7891ZM5.5 19.7891H26.5V22.7891H5.5V19.7891ZM11.5 7.28906C11.5 6.09559 11.9741 4.951 12.818 4.10708C13.6619 3.26317 14.8065 2.78906 16 2.78906C17.1935 2.78906 18.3381 3.26317 19.182 4.10708C20.0259 4.951 20.5 6.09559 20.5 7.28906V10.7891H11.5V7.28906ZM6 11.7891H26C26.1326 11.7891 26.2598 11.8417 26.3536 11.9355C26.4473 12.0293 26.5 12.1565 26.5 12.2891V14.7891H5.5V12.2891C5.5 12.1565 5.55268 12.0293 5.64645 11.9355C5.74021 11.8417 5.86739 11.7891 6 11.7891ZM26 26.7891H6C5.86739 26.7891 5.74021 26.7364 5.64645 26.6426C5.55268 26.5488 5.5 26.4217 5.5 26.2891V23.7891H26.5V26.2891C26.5 26.4217 26.4473 26.5488 26.3536 26.6426C26.2598 26.7364 26.1326 26.7891 26 26.7891Z" fill="#8B71F6"/>
</g>
</svg>
