<svg width="62" height="53" viewBox="0 0 62 53" fill="none" xmlns="http://www.w3.org/2000/svg">
<path id="&#226;&#128;&#156;" d="M55.92 27.8V23.8H51.92H46.32V23.24C46.32 20.8568 46.9311 19.7945 47.4632 19.2826C48.0241 18.743 49.2187 18.12 51.8 18.12H53.72H57.72V14.12V8V4H53.72H51.56C45.5926 4 40.4001 5.59456 36.6909 9.41286L36.6701 9.43425L36.6496 9.45595C33.1474 13.1705 31.6 18.0441 31.6 23.6V44.12V48.12H35.6H51.92H55.92V44.12V27.8ZM28.32 27.8V23.8H24.32H18.72V23.24C18.72 20.8568 19.3311 19.7945 19.8632 19.2826C20.4241 18.743 21.6187 18.12 24.2 18.12H26.12H30.12V14.12V8V4H26.12H23.96C17.9925 4 12.8001 5.59456 9.09088 9.41286L9.0701 9.43425L9.04964 9.45595C5.54739 13.1705 4 18.0441 4 23.6V44.12V48.12H8H24.32H28.32V44.12V27.8Z" fill="#8B71F6" stroke="white" stroke-width="8"/>
</svg>
