<svg width="32" height="33" viewBox="0 0 32 33" fill="none" xmlns="http://www.w3.org/2000/svg">
<g id="ShieldCheck">
<path id="Vector" d="M26 5.78906H6C5.60218 5.78906 5.22064 5.9471 4.93934 6.2284C4.65804 6.50971 4.5 6.89124 4.5 7.28906V14.2891C4.5 20.6841 7.59125 24.5541 10.1838 26.6766C12.9838 28.9666 15.7525 29.7391 15.8687 29.7716C15.9547 29.7949 16.0453 29.7949 16.1313 29.7716C16.2475 29.7391 19.0162 28.9666 21.8162 26.6766C24.4088 24.5516 27.5 20.6841 27.5 14.2891V7.28906C27.5 6.89124 27.342 6.50971 27.0607 6.2284C26.7794 5.9471 26.3978 5.78906 26 5.78906ZM26.5 14.2891C26.5 19.0941 24.7213 22.9928 21.2138 25.8778C19.6649 27.1482 17.8984 28.127 16 28.7666C14.1014 28.1276 12.3348 27.1487 10.7863 25.8778C7.27875 22.9928 5.5 19.0941 5.5 14.2891V7.28906C5.5 7.15645 5.55268 7.02928 5.64645 6.93551C5.74021 6.84174 5.86739 6.78906 6 6.78906H26C26.1326 6.78906 26.2598 6.84174 26.3536 6.93551C26.4473 7.02928 26.5 7.15645 26.5 7.28906V14.2891ZM21.3538 12.9353C21.4002 12.9817 21.4371 13.0369 21.4623 13.0976C21.4874 13.1583 21.5004 13.2234 21.5004 13.2891C21.5004 13.3548 21.4874 13.4198 21.4623 13.4805C21.4371 13.5412 21.4002 13.5964 21.3538 13.6428L14.3538 20.6428C14.3073 20.6893 14.2522 20.7262 14.1915 20.7513C14.1308 20.7765 14.0657 20.7895 14 20.7895C13.9343 20.7895 13.8692 20.7765 13.8085 20.7513C13.7478 20.7262 13.6927 20.6893 13.6462 20.6428L10.6462 17.6428C10.5524 17.549 10.4997 17.4217 10.4997 17.2891C10.4997 17.1564 10.5524 17.0291 10.6462 16.9353C10.7401 16.8415 10.8673 16.7888 11 16.7888C11.1327 16.7888 11.2599 16.8415 11.3538 16.9353L14 19.5816L20.6462 12.9353C20.6927 12.8888 20.7478 12.8519 20.8085 12.8268C20.8692 12.8016 20.9343 12.7887 21 12.7887C21.0657 12.7887 21.1308 12.8016 21.1915 12.8268C21.2522 12.8519 21.3073 12.8888 21.3538 12.9353Z" fill="#8B71F6"/>
</g>
</svg>
