<svg width="32" height="32" viewBox="0 0 32 32" fill="none" xmlns="http://www.w3.org/2000/svg">
<g id="Sparkle">
<path id="Vector" d="M24.5252 16.6012L17.8552 14.145L15.3989 7.475C15.2933 7.18914 15.1026 6.94252 14.8525 6.76834C14.6024 6.59416 14.305 6.50078 14.0002 6.50078C13.6954 6.50078 13.398 6.59416 13.1479 6.76834C12.8978 6.94252 12.7071 7.18914 12.6014 7.475L10.1452 14.145L3.47519 16.6012C3.18933 16.7069 2.94271 16.8976 2.76853 17.1477C2.59435 17.3978 2.50098 17.6952 2.50098 18C2.50098 18.3048 2.59435 18.6022 2.76853 18.8523C2.94271 19.1024 3.18933 19.2931 3.47519 19.3988L10.1452 21.855L12.6014 28.525C12.7071 28.8109 12.8978 29.0575 13.1479 29.2317C13.398 29.4058 13.6954 29.4992 14.0002 29.4992C14.305 29.4992 14.6024 29.4058 14.8525 29.2317C15.1026 29.0575 15.2933 28.8109 15.3989 28.525L17.8552 21.855L24.5252 19.3988C24.8111 19.2931 25.0577 19.1024 25.2318 18.8523C25.406 18.6022 25.4994 18.3048 25.4994 18C25.4994 17.6952 25.406 17.3978 25.2318 17.1477C25.0577 16.8976 24.8111 16.7069 24.5252 16.6012ZM24.1789 18.46L17.2939 21C17.2261 21.025 17.1644 21.0645 17.1133 21.1156C17.0621 21.1667 17.0227 21.2284 16.9977 21.2962L14.4602 28.1812C14.4256 28.2754 14.363 28.3568 14.2807 28.4142C14.1984 28.4716 14.1005 28.5024 14.0002 28.5024C13.8999 28.5024 13.8019 28.4716 13.7197 28.4142C13.6374 28.3568 13.5748 28.2754 13.5402 28.1812L11.0002 21.2938C10.9751 21.2266 10.936 21.1656 10.8853 21.1149C10.8346 21.0642 10.7736 21.025 10.7064 21L3.82144 18.4625C3.72725 18.4279 3.64594 18.3653 3.5885 18.283C3.53106 18.2008 3.50026 18.1028 3.50026 18.0025C3.50026 17.9022 3.53106 17.8043 3.5885 17.722C3.64594 17.6397 3.72725 17.5771 3.82144 17.5425L10.7064 15C10.7736 14.975 10.8346 14.9358 10.8853 14.8851C10.936 14.8344 10.9751 14.7734 11.0002 14.7063L13.5377 7.82125C13.5723 7.72706 13.6349 7.64575 13.7172 7.58831C13.7994 7.53087 13.8974 7.50007 13.9977 7.50007C14.098 7.50007 14.1959 7.53087 14.2782 7.58831C14.3605 7.64575 14.4231 7.72706 14.4577 7.82125L17.0002 14.7063C17.0252 14.7741 17.0646 14.8358 17.1158 14.8869C17.1669 14.938 17.2286 14.9775 17.2964 15.0025L24.1814 17.54C24.2756 17.5746 24.3569 17.6372 24.4144 17.7195C24.4718 17.8018 24.5026 17.8997 24.5026 18C24.5026 18.1003 24.4718 18.1982 24.4144 18.2805C24.3569 18.3628 24.2756 18.4254 24.1814 18.46H24.1789ZM18.5002 5C18.5002 4.86739 18.5529 4.74021 18.6466 4.64645C18.7404 4.55268 18.8676 4.5 19.0002 4.5H21.5002V2C21.5002 1.86739 21.5529 1.74021 21.6466 1.64645C21.7404 1.55268 21.8676 1.5 22.0002 1.5C22.1328 1.5 22.26 1.55268 22.3537 1.64645C22.4475 1.74021 22.5002 1.86739 22.5002 2V4.5H25.0002C25.1328 4.5 25.26 4.55268 25.3537 4.64645C25.4475 4.74021 25.5002 4.86739 25.5002 5C25.5002 5.13261 25.4475 5.25979 25.3537 5.35355C25.26 5.44732 25.1328 5.5 25.0002 5.5H22.5002V8C22.5002 8.13261 22.4475 8.25979 22.3537 8.35355C22.26 8.44732 22.1328 8.5 22.0002 8.5C21.8676 8.5 21.7404 8.44732 21.6466 8.35355C21.5529 8.25979 21.5002 8.13261 21.5002 8V5.5H19.0002C18.8676 5.5 18.7404 5.44732 18.6466 5.35355C18.5529 5.25979 18.5002 5.13261 18.5002 5ZM30.5002 11C30.5002 11.1326 30.4475 11.2598 30.3537 11.3536C30.26 11.4473 30.1328 11.5 30.0002 11.5H28.5002V13C28.5002 13.1326 28.4475 13.2598 28.3537 13.3536C28.26 13.4473 28.1328 13.5 28.0002 13.5C27.8676 13.5 27.7404 13.4473 27.6466 13.3536C27.5529 13.2598 27.5002 13.1326 27.5002 13V11.5H26.0002C25.8676 11.5 25.7404 11.4473 25.6466 11.3536C25.5529 11.2598 25.5002 11.1326 25.5002 11C25.5002 10.8674 25.5529 10.7402 25.6466 10.6464C25.7404 10.5527 25.8676 10.5 26.0002 10.5H27.5002V9C27.5002 8.86739 27.5529 8.74021 27.6466 8.64645C27.7404 8.55268 27.8676 8.5 28.0002 8.5C28.1328 8.5 28.26 8.55268 28.3537 8.64645C28.4475 8.74021 28.5002 8.86739 28.5002 9V10.5H30.0002C30.1328 10.5 30.26 10.5527 30.3537 10.6464C30.4475 10.7402 30.5002 10.8674 30.5002 11Z" fill="#8B71F6"/>
</g>
</svg>
